<svg width="33" height="32" viewBox="0 0 33 32" fill="none" xmlns="http://www.w3.org/2000/svg">
<path fill-rule="evenodd" clip-rule="evenodd" d="M10.2644 1.42125C11.8772 1.34925 12.3915 1.33325 16.5 1.33325C20.6085 1.33325 21.1227 1.35059 22.7342 1.42125C24.3457 1.49192 25.4457 1.74125 26.4082 2.10259C27.4161 2.47192 28.3305 3.04925 29.0867 3.79592C29.8567 4.52792 30.4507 5.41325 30.8302 6.39192C31.2042 7.32525 31.46 8.39192 31.5342 9.95192C31.6085 11.5186 31.625 12.0173 31.625 15.9999C31.625 19.9839 31.6071 20.4826 31.5342 22.0466C31.4614 23.6066 31.2042 24.6733 30.8302 25.6066C30.4507 26.5854 29.8558 27.4722 29.0867 28.2052C28.3305 28.9519 27.4161 29.5279 26.4082 29.8959C25.4457 30.2586 24.3457 30.5066 22.737 30.5786C21.1227 30.6506 20.6085 30.6666 16.5 30.6666C12.3915 30.6666 11.8772 30.6493 10.2644 30.5786C8.65562 30.5079 7.55562 30.2586 6.59312 29.8959C5.58377 29.5279 4.66925 28.9509 3.91325 28.2052C3.14377 27.4728 2.54831 26.5864 2.16837 25.6079C1.79575 24.6746 1.54 23.6079 1.46575 22.0479C1.3915 20.4813 1.375 19.9826 1.375 15.9999C1.375 12.0159 1.39287 11.5173 1.46575 9.95459C1.53862 8.39192 1.79575 7.32525 2.16837 6.39192C2.54887 5.41336 3.14479 4.527 3.91462 3.79458C4.66956 3.04859 5.58315 2.47118 6.59175 2.10259C7.55425 1.74125 8.65425 1.49325 10.263 1.42125H10.2644ZM22.6119 4.06125C21.0169 3.99059 20.5384 3.97592 16.5 3.97592C12.4616 3.97592 11.9831 3.99059 10.3881 4.06125C8.91275 4.12659 8.1125 4.36525 7.579 4.56659C6.87362 4.83325 6.369 5.14925 5.83962 5.66259C5.33781 6.13599 4.95162 6.71229 4.70937 7.34925C4.50175 7.86659 4.25562 8.64258 4.18825 10.0733C4.11537 11.6199 4.10025 12.0839 4.10025 15.9999C4.10025 19.9159 4.11537 20.3799 4.18825 21.9266C4.25562 23.3573 4.50175 24.1333 4.70937 24.6506C4.95137 25.2866 5.33775 25.8639 5.83962 26.3373C6.32775 26.8239 6.92312 27.1986 7.579 27.4333C8.1125 27.6346 8.91275 27.8733 10.3881 27.9386C11.9831 28.0093 12.4602 28.0239 16.5 28.0239C20.5397 28.0239 21.0169 28.0093 22.6119 27.9386C24.0872 27.8733 24.8875 27.6346 25.421 27.4333C26.1264 27.1666 26.631 26.8506 27.1604 26.3373C27.6622 25.8639 28.0486 25.2866 28.2906 24.6506C28.4982 24.1333 28.7444 23.3573 28.8117 21.9266C28.8846 20.3799 28.8997 19.9159 28.8997 15.9999C28.8997 12.0839 28.8846 11.6199 28.8117 10.0733C28.7444 8.64258 28.4982 7.86659 28.2906 7.34925C28.0156 6.66525 27.6897 6.17592 27.1604 5.66259C26.6721 5.17601 26.0778 4.80153 25.421 4.56659C24.8875 4.36525 24.0872 4.12659 22.6119 4.06125ZM14.5681 20.5212C15.647 20.9568 16.8484 21.0155 17.967 20.6875C19.0857 20.3596 20.0522 19.6651 20.7015 18.7229C21.3508 17.7807 21.6426 16.6491 21.5271 15.5214C21.4116 14.3937 20.8959 13.3399 20.0681 12.5399C19.5404 12.0286 18.9024 11.637 18.2 11.3934C17.4975 11.1499 16.7481 11.0604 16.0057 11.1314C15.2633 11.2024 14.5463 11.4322 13.9065 11.8041C13.2666 12.176 12.7198 12.6809 12.3053 13.2824C11.8908 13.8839 11.619 14.567 11.5095 15.2825C11.3999 15.9981 11.4553 16.7283 11.6717 17.4206C11.8882 18.1129 12.2602 18.7501 12.761 19.2862C13.2618 19.8224 13.879 20.2442 14.5681 20.5212ZM11.0027 10.6693C11.7247 9.96922 12.5817 9.41392 13.5249 9.03507C14.4681 8.65621 15.4791 8.46122 16.5 8.46122C17.5209 8.46122 18.5319 8.65621 19.4751 9.03507C20.4183 9.41392 21.2753 9.96922 21.9972 10.6693C22.7192 11.3693 23.2918 12.2003 23.6825 13.115C24.0732 14.0296 24.2743 15.0099 24.2743 15.9999C24.2743 16.9899 24.0732 17.9702 23.6825 18.8849C23.2918 19.7995 22.7192 20.6306 21.9972 21.3306C20.5393 22.7444 18.5619 23.5386 16.5 23.5386C14.4381 23.5386 12.4607 22.7444 11.0027 21.3306C9.54479 19.9168 8.72571 17.9993 8.72571 15.9999C8.72571 14.0005 9.54479 12.083 11.0027 10.6693ZM25.9985 9.58392C26.1774 9.42028 26.3206 9.22349 26.4197 9.00522C26.5187 8.78694 26.5716 8.55161 26.5752 8.31316C26.5788 8.07471 26.533 7.83798 26.4405 7.617C26.3481 7.39602 26.2108 7.19527 26.0369 7.02664C25.863 6.85801 25.656 6.72493 25.4281 6.63528C25.2002 6.54562 24.9561 6.50122 24.7102 6.5047C24.4643 6.50817 24.2216 6.55946 23.9965 6.65551C23.7714 6.75157 23.5685 6.89045 23.3997 7.06392C23.0716 7.40129 22.8919 7.84941 22.8988 8.31316C22.9058 8.7769 23.0989 9.21976 23.4371 9.54771C23.7753 9.87566 24.232 10.0629 24.7102 10.0696C25.1885 10.0764 25.6506 9.90217 25.9985 9.58392Z" fill="#F9A72B"/>
</svg>
